<svg width="283" height="183" viewBox="0 0 283 183" fill="none" xmlns="http://www.w3.org/2000/svg">
<path d="M221.123 67.9741H15.4052C6.89714 67.9741 0 74.8713 0 83.3793V146.357C0 154.866 6.89714 161.763 15.4052 161.763H221.123C229.631 161.763 236.528 154.866 236.528 146.357V83.3793C236.528 74.8713 229.631 67.9741 221.123 67.9741Z" fill="white"/>
<path d="M208.968 161.688V177.835C208.968 179.108 208.462 180.329 207.562 181.229C206.661 182.13 205.44 182.635 204.167 182.635H25.1277C23.8545 182.635 22.6335 182.13 21.7332 181.229C20.833 180.329 20.3272 179.108 20.3272 177.835V161.688" fill="black"/>
<path d="M28.3988 168.066H30.9904C32.1713 168.066 33.0276 168.235 33.5592 168.573C34.0946 168.907 34.3623 169.44 34.3623 170.173C34.3623 170.67 34.2446 171.079 34.0092 171.398C33.7775 171.717 33.4681 171.908 33.0808 171.973V172.03C33.6086 172.148 33.9883 172.368 34.2199 172.691C34.4553 173.013 34.5731 173.442 34.5731 173.978C34.5731 174.737 34.2978 175.33 33.7472 175.755C33.2004 176.18 32.4561 176.393 31.5144 176.393H28.3988V168.066ZM30.1645 171.363H31.1897C31.6682 171.363 32.0137 171.289 32.2264 171.141C32.4428 170.993 32.551 170.748 32.551 170.407C32.551 170.088 32.4333 169.86 32.1979 169.723C31.9663 169.583 31.5979 169.512 31.0929 169.512H30.1645V171.363ZM30.1645 172.765V174.935H31.3151C31.8011 174.935 32.1599 174.842 32.3916 174.656C32.6232 174.47 32.739 174.185 32.739 173.801C32.739 173.11 32.2454 172.765 31.2581 172.765H30.1645Z" fill="white"/>
<path d="M38.0019 171.762H38.5715C39.1297 171.762 39.5417 171.669 39.8075 171.483C40.0733 171.297 40.2062 171.005 40.2062 170.606C40.2062 170.211 40.0695 169.93 39.7961 169.763C39.5265 169.596 39.1069 169.512 38.5373 169.512H38.0019V171.762ZM38.0019 173.197V176.393H36.2362V168.066H38.6626C39.7942 168.066 40.6315 168.273 41.1745 168.686C41.7175 169.097 41.989 169.721 41.989 170.56C41.989 171.05 41.8542 171.487 41.5846 171.87C41.315 172.25 40.9334 172.548 40.4397 172.765C41.6928 174.637 42.5092 175.846 42.8889 176.393H40.9296L38.9417 173.197H38.0019Z" fill="white"/>
<path d="M43.937 176.393V168.066H45.7027V176.393H43.937Z" fill="white"/>
<path d="M55.1862 176.393H52.942L49.3195 170.093H49.2682C49.3404 171.206 49.3765 171.999 49.3765 172.474V176.393H47.7987V168.066H50.0258L53.6426 174.302H53.6825C53.6255 173.22 53.5971 172.455 53.5971 172.007V168.066H55.1862V176.393Z" fill="white"/>
<path d="M60.4491 171.717H63.7527V176.034C63.2173 176.209 62.7122 176.33 62.2376 176.399C61.7667 176.471 61.2845 176.507 60.7909 176.507C59.534 176.507 58.5733 176.138 57.9088 175.402C57.2481 174.661 56.9177 173.6 56.9177 172.218C56.9177 170.874 57.3012 169.826 58.0683 169.074C58.8391 168.322 59.9061 167.946 61.2693 167.946C62.1237 167.946 62.9477 168.117 63.7413 168.459L63.1546 169.871C62.5471 169.567 61.9148 169.415 61.2579 169.415C60.4947 169.415 59.8833 169.672 59.4239 170.184C58.9644 170.697 58.7347 171.386 58.7347 172.252C58.7347 173.156 58.9188 173.847 59.2872 174.325C59.6593 174.8 60.1985 175.037 60.9048 175.037C61.2731 175.037 61.6471 174.999 62.0269 174.923V173.186H60.4491V171.717Z" fill="white"/>
<path d="M71.3623 171.494L73.0995 168.066H75.0019L72.2394 173.152V176.393H70.4851V173.209L67.7227 168.066H69.6365L71.3623 171.494Z" fill="white"/>
<path d="M83.6083 172.218C83.6083 173.596 83.2665 174.656 82.583 175.396C81.8995 176.137 80.9198 176.507 79.644 176.507C78.3681 176.507 77.3884 176.137 76.7049 175.396C76.0215 174.656 75.6797 173.592 75.6797 172.206C75.6797 170.82 76.0215 169.763 76.7049 169.034C77.3922 168.301 78.3757 167.935 79.6554 167.935C80.935 167.935 81.9128 168.303 82.5887 169.04C83.2684 169.776 83.6083 170.836 83.6083 172.218ZM77.5308 172.218C77.5308 173.148 77.7074 173.849 78.0606 174.32C78.4137 174.79 78.9415 175.026 79.644 175.026C81.0527 175.026 81.7571 174.09 81.7571 172.218C81.7571 170.342 81.0565 169.404 79.6554 169.404C78.9529 169.404 78.4232 169.641 78.0662 170.116C77.7093 170.587 77.5308 171.288 77.5308 172.218Z" fill="white"/>
<path d="M92.1121 168.066V173.454C92.1121 174.069 91.9735 174.608 91.6963 175.071C91.4229 175.535 91.0261 175.89 90.5059 176.137C89.9857 176.383 89.3705 176.507 88.6604 176.507C87.5896 176.507 86.758 176.233 86.1657 175.687C85.5733 175.136 85.2771 174.384 85.2771 173.431V168.066H87.0371V173.163C87.0371 173.805 87.1662 174.276 87.4245 174.576C87.6827 174.876 88.1099 175.026 88.706 175.026C89.2832 175.026 89.7009 174.876 89.9591 174.576C90.2211 174.272 90.3521 173.797 90.3521 173.152V168.066H92.1121Z" fill="white"/>
<path d="M95.9169 171.762H96.4865C97.0447 171.762 97.4567 171.669 97.7225 171.483C97.9883 171.297 98.1212 171.005 98.1212 170.606C98.1212 170.211 97.9845 169.93 97.7111 169.763C97.4415 169.596 97.0219 169.512 96.4523 169.512H95.9169V171.762ZM95.9169 173.197V176.393H94.1512V168.066H96.5776C97.7092 168.066 98.5465 168.273 99.0895 168.686C99.6325 169.097 99.904 169.721 99.904 170.56C99.904 171.05 99.7692 171.487 99.4996 171.87C99.23 172.25 98.8483 172.548 98.3547 172.765C99.6078 174.637 100.424 175.846 100.804 176.393H98.8446L96.8567 173.197H95.9169Z" fill="white"/>
<path d="M109.632 168.066H111.415L108.584 176.393H106.659L103.834 168.066H105.617L107.183 173.021C107.271 173.313 107.36 173.655 107.451 174.046C107.546 174.433 107.605 174.703 107.627 174.855C107.669 174.506 107.812 173.894 108.055 173.021L109.632 168.066Z" fill="white"/>
<path d="M117.265 176.393H112.469V168.066H117.265V169.512H114.235V171.341H117.054V172.787H114.235V174.935H117.265V176.393Z" fill="white"/>
<path d="M125.831 176.393H124.071V172.799H120.773V176.393H119.008V168.066H120.773V171.329H124.071V168.066H125.831V176.393Z" fill="white"/>
<path d="M127.939 176.393V168.066H129.704V176.393H127.939Z" fill="white"/>
<path d="M135.338 169.415C134.673 169.415 134.159 169.666 133.794 170.167C133.429 170.665 133.247 171.36 133.247 172.252C133.247 174.109 133.944 175.037 135.338 175.037C135.922 175.037 136.631 174.891 137.462 174.599V176.08C136.779 176.364 136.015 176.507 135.172 176.507C133.961 176.507 133.035 176.14 132.393 175.407C131.751 174.671 131.43 173.615 131.43 172.241C131.43 171.375 131.588 170.617 131.903 169.968C132.218 169.315 132.67 168.816 133.259 168.47C133.851 168.121 134.544 167.946 135.338 167.946C136.146 167.946 136.959 168.142 137.775 168.533L137.206 169.968C136.894 169.82 136.581 169.691 136.266 169.581C135.951 169.471 135.641 169.415 135.338 169.415Z" fill="white"/>
<path d="M139.239 176.393V168.066H141.005V174.935H144.383V176.393H139.239Z" fill="white"/>
<path d="M150.631 176.393H145.835V168.066H150.631V169.512H147.601V171.341H150.42V172.787H147.601V174.935H150.631V176.393Z" fill="white"/>
<path d="M158.616 176.393H156.851V169.535H154.589V168.066H160.878V169.535H158.616V176.393Z" fill="white"/>
<path d="M169.717 172.218C169.717 173.596 169.376 174.656 168.692 175.396C168.009 176.137 167.029 176.507 165.753 176.507C164.477 176.507 163.498 176.137 162.814 175.396C162.131 174.656 161.789 173.592 161.789 172.206C161.789 170.82 162.131 169.763 162.814 169.034C163.501 168.301 164.485 167.935 165.765 167.935C167.044 167.935 168.022 168.303 168.698 169.04C169.378 169.776 169.717 170.836 169.717 172.218ZM163.64 172.218C163.64 173.148 163.817 173.849 164.17 174.32C164.523 174.79 165.051 175.026 165.753 175.026C167.162 175.026 167.866 174.09 167.866 172.218C167.866 170.342 167.166 169.404 165.765 169.404C165.062 169.404 164.532 169.641 164.175 170.116C163.819 170.587 163.64 171.288 163.64 172.218Z" fill="white"/>
<path d="M174.473 176.393V168.066H176.239V174.935H179.617V176.393H174.473Z" fill="white"/>
<path d="M181.069 176.393V168.066H182.835V176.393H181.069Z" fill="white"/>
<path d="M186.668 176.393H184.931V168.066H189.704V169.512H186.668V171.66H189.493V173.101H186.668V176.393Z" fill="white"/>
<path d="M196.129 176.393H191.333V168.066H196.129V169.512H193.099V171.341H195.918V172.787H193.099V174.935H196.129V176.393Z" fill="white"/>
<path d="M14.55 83.769H37.2225C46.0535 83.769 52.6101 85.0806 56.8922 87.7038C61.1742 90.327 63.3155 94.4096 63.3159 99.9515C63.4103 103.283 62.4283 106.557 60.5157 109.287C58.7499 111.795 56.1233 113.566 53.136 114.263V114.708C57.166 115.777 60.0851 117.555 61.8934 120.042C63.7017 122.53 64.6058 125.761 64.6058 129.735C64.6058 135.633 62.3903 140.278 57.9592 143.671C53.5281 147.064 47.491 148.761 39.8477 148.76H14.5531L14.55 83.769ZM32.1089 108.709H37.3975C39.9171 108.709 41.8656 108.19 43.2429 107.153C44.6202 106.116 45.3092 104.575 45.31 102.53C45.31 98.8832 42.5542 97.06 37.0426 97.0604H32.1089V108.709ZM32.1089 121.556V135.202H38.2883C43.77 135.202 46.5123 132.889 46.5152 128.264C46.5693 127.319 46.398 126.375 46.0154 125.509C45.6328 124.644 45.0499 123.881 44.3148 123.285C42.8471 122.132 40.721 121.554 37.9365 121.553L32.1089 121.556Z" fill="black"/>
<path d="M129.877 116.176C129.877 127.111 127.195 135.423 121.831 141.114C116.467 146.804 108.614 149.649 98.2717 149.648C88.0768 149.648 80.2607 146.787 74.8231 141.066C69.3856 135.346 66.6662 127.018 66.665 116.084C66.665 105.268 69.3692 97.008 74.7777 91.3028C80.1862 85.5976 88.0474 82.7452 98.3613 82.7456C108.703 82.7456 116.541 85.5759 121.875 91.2365C127.21 96.8971 129.877 105.21 129.877 116.176ZM85.1577 116.176C85.1577 128.742 89.529 135.025 98.2717 135.025C102.718 135.025 106.015 133.499 108.164 130.447C110.312 127.395 111.386 122.639 111.385 116.178C111.385 109.687 110.296 104.894 108.118 101.796C105.94 98.6993 102.688 97.1513 98.3619 97.1525C89.5595 97.1517 85.1581 103.493 85.1577 116.176V116.176Z" fill="black"/>
<path d="M134.786 148.76V83.769H152.345V134.579H177.373V148.761L134.786 148.76Z" fill="black"/>
<path d="M202.334 148.76H184.775V98.1287H168.906V83.769H226.22L218.16 98.1287H202.334V148.76Z" fill="black"/>
<path d="M208.319 141.38C208.319 138.654 209.127 136.55 210.741 135.068C212.356 133.586 214.705 132.846 217.788 132.846C220.722 132.846 222.974 133.587 224.545 135.068C226.117 136.549 226.902 138.653 226.901 141.38C226.901 144.047 226.093 146.13 224.478 147.628C222.864 149.126 220.633 149.873 217.786 149.871C214.853 149.871 212.541 149.13 210.849 147.649C209.157 146.168 208.314 144.078 208.319 141.38Z" fill="#30AE9F"/>
<path d="M272.4 0L203.944 76.6772L238.448 76.722L207.478 131.073L283 55.337L242.357 56.3918L272.4 0Z" fill="#30AE9F"/>
</svg>
